<svg width="105" height="111" viewBox="0 0 105 111" fill="none" xmlns="http://www.w3.org/2000/svg">
<g clip-path="url(#clip0_41_20126)">
<path d="M74.8486 70.7753H59.3528C69.3273 64.16 75.9214 52.8418 75.9214 39.994C75.9214 19.6556 59.3679 3.07092 38.9983 3.07092C18.6302 3.07092 2.0752 19.6556 2.0752 39.994C2.0752 60.335 18.5851 76.8671 38.9156 76.9129C38.9442 76.9137 38.9667 76.9291 38.9953 76.9291H74.8486C76.5494 76.9291 77.9256 75.5514 77.9256 73.8522C77.9256 72.153 76.5494 70.7753 74.8486 70.7753V70.7753ZM21.1332 48.8249C16.297 48.8249 12.3336 44.8622 12.3336 39.9925C12.3336 35.142 16.2578 31.1937 21.1332 31.1937C25.7859 31.1937 29.9643 34.934 29.9643 39.9925C29.9643 44.8622 26.0025 48.8249 21.1332 48.8249V48.8249ZM38.9983 66.6913C34.129 66.6913 30.1671 62.7284 30.1671 57.8589C30.1671 52.9892 34.129 49.0265 38.9983 49.0265C43.8691 49.0265 47.7979 52.9892 47.7979 57.8589C47.7979 62.7284 43.8691 66.6913 38.9983 66.6913ZM36.8453 37.8304C37.7253 36.7318 39.9905 36.578 41.1527 37.8304C42.3185 38.9954 42.4372 40.7743 41.1527 42.1997C39.9032 43.4474 37.9017 43.2554 36.8453 42.1997C35.7151 41.0709 35.5095 39.1662 36.8453 37.8304ZM38.9983 30.9585C34.129 30.9585 30.1671 27.0294 30.1671 22.1597C30.1671 17.29 34.129 13.3273 38.9983 13.3273C43.8691 13.3273 47.7979 17.29 47.7979 22.1597C47.7979 27.0294 43.8691 30.9585 38.9983 30.9585ZM48.0337 39.9925C48.0337 35.1564 51.9956 31.1937 56.8649 31.1937C61.7011 31.1937 65.6644 35.1564 65.6644 39.9925C65.6644 44.8622 61.7011 48.8249 56.8649 48.8249C51.9956 48.8249 48.0337 44.8622 48.0337 39.9925V39.9925Z" fill="#E07900"/>
<path d="M3.08 108V81.92H9.52L13.72 93.52C13.9867 94.2667 14.24 95.0533 14.48 95.88C14.72 96.7067 14.9733 97.52 15.24 98.32H15.4C15.6667 97.52 15.9067 96.7067 16.12 95.88C16.36 95.0533 16.6133 94.2667 16.88 93.52L21 81.92H27.4V108H22.04V98.44C22.04 97.5867 22.08 96.64 22.16 95.6C22.2667 94.5333 22.3733 93.4667 22.48 92.4C22.6133 91.3333 22.72 90.3867 22.8 89.56H22.64L20.52 95.76L16.8 105.72H13.56L9.84 95.76L7.76 89.56H7.6C7.70667 90.3867 7.81333 91.3333 7.92 92.4C8.02667 93.4667 8.12 94.5333 8.2 95.6C8.30667 96.64 8.36 97.5867 8.36 98.44V108H3.08ZM41.5888 108.48C39.9088 108.48 38.3221 108.08 36.8288 107.28C35.3621 106.453 34.1754 105.267 33.2688 103.72C32.3621 102.147 31.9088 100.267 31.9088 98.08C31.9088 95.8667 32.3621 93.9867 33.2688 92.44C34.1754 90.8933 35.3621 89.72 36.8288 88.92C38.3221 88.0933 39.9088 87.68 41.5888 87.68C43.2688 87.68 44.8421 88.0933 46.3088 88.92C47.7754 89.72 48.9621 90.8933 49.8688 92.44C50.7754 93.9867 51.2288 95.8667 51.2288 98.08C51.2288 100.267 50.7754 102.147 49.8688 103.72C48.9621 105.267 47.7754 106.453 46.3088 107.28C44.8421 108.08 43.2688 108.48 41.5888 108.48ZM41.5888 103.72C42.7888 103.72 43.6954 103.213 44.3088 102.2C44.9221 101.16 45.2288 99.7867 45.2288 98.08C45.2288 96.3467 44.9221 94.9733 44.3088 93.96C43.6954 92.9467 42.7888 92.44 41.5888 92.44C40.3621 92.44 39.4421 92.9467 38.8288 93.96C38.2421 94.9733 37.9488 96.3467 37.9488 98.08C37.9488 99.7867 38.2421 101.16 38.8288 102.2C39.4421 103.213 40.3621 103.72 41.5888 103.72ZM59.5038 108L52.8238 88.16H58.7438L61.3038 97.52C61.5704 98.5067 61.8238 99.52 62.0638 100.56C62.3304 101.573 62.5971 102.6 62.8638 103.64H63.0238C63.2638 102.6 63.5038 101.573 63.7438 100.56C64.0104 99.52 64.2771 98.5067 64.5438 97.52L67.1438 88.16H72.7838L66.3038 108H59.5038ZM75.8813 108V88.16H81.7613V108H75.8813ZM78.8013 85.24C77.8146 85.24 77.0146 84.96 76.4013 84.4C75.7879 83.84 75.4813 83.0933 75.4813 82.16C75.4813 81.2267 75.7879 80.48 76.4013 79.92C77.0146 79.36 77.8146 79.08 78.8013 79.08C79.7879 79.08 80.5879 79.36 81.2013 79.92C81.8146 80.48 82.1213 81.2267 82.1213 82.16C82.1213 83.0933 81.8146 83.84 81.2013 84.4C80.5879 84.96 79.7879 85.24 78.8013 85.24ZM95.8159 108.48C93.9226 108.48 92.2159 108.067 90.6959 107.24C89.1759 106.413 87.9759 105.227 87.0959 103.68C86.2159 102.133 85.7759 100.267 85.7759 98.08C85.7759 95.92 86.2159 94.0667 87.0959 92.52C88.0026 90.9733 89.1759 89.7867 90.6159 88.96C92.0559 88.1067 93.5626 87.68 95.1359 87.68C97.0293 87.68 98.5893 88.1067 99.8159 88.96C101.069 89.7867 102.003 90.92 102.616 92.36C103.256 93.7733 103.576 95.3867 103.576 97.2C103.576 97.7067 103.549 98.2133 103.496 98.72C103.443 99.2 103.389 99.56 103.336 99.8H91.4559C91.7226 101.24 92.3226 102.307 93.2559 103C94.1893 103.667 95.3093 104 96.6159 104C98.0293 104 99.4559 103.56 100.896 102.68L102.856 106.24C101.843 106.933 100.709 107.48 99.4559 107.88C98.2026 108.28 96.9893 108.48 95.8159 108.48ZM91.4159 95.92H98.5759C98.5759 94.8267 98.3093 93.9333 97.7759 93.24C97.2693 92.52 96.4293 92.16 95.2559 92.16C94.3493 92.16 93.5359 92.48 92.8159 93.12C92.0959 93.7333 91.6293 94.6667 91.4159 95.92Z" fill="#E07900"/>
</g>
<defs>
<clipPath id="clip0_41_20126">
<rect width="105" height="111" fill="white"/>
</clipPath>
</defs>
</svg>
