<svg width="512" height="512" viewBox="0 0 512 512" fill="none" xmlns="http://www.w3.org/2000/svg">
<g clip-path="url(#clip0_475_24086)">
<path fill-rule="evenodd" clip-rule="evenodd" d="M101.556 470.213C99.249 470.213 97.3506 468.38 97.3506 466.044V45.9405C97.3506 42.1713 98.865 38.5792 101.551 35.9366L101.56 35.9275C104.243 33.2835 107.912 31.7866 111.735 31.7866H400.265C404.088 31.7866 407.757 33.2834 410.442 35.9285L410.449 35.9356C413.135 38.5785 414.649 42.1712 414.649 45.9405V465.776C414.649 468.216 412.637 470.213 410.123 470.213C408.522 470.213 406.985 469.607 405.775 468.43C384.749 447.709 321.817 385.796 295.839 360.281C285.29 349.853 270.922 344.023 256 344.023C241.078 344.023 226.712 349.853 216.162 360.279C198.641 377.488 164.305 411.266 137.349 437.783C124.451 450.472 113.242 461.499 106.374 468.252L106.346 468.279C105.077 469.533 103.404 470.213 101.636 470.213H101.556ZM62 466.044C62 487.526 79.6583 505 101.556 505H101.636C112.845 505 123.507 500.608 131.373 492.847C138.254 486.081 149.469 475.049 162.368 462.359C189.33 435.836 223.652 402.072 241.156 384.879L241.203 384.834C245.077 381 250.415 378.81 256 378.81C261.586 378.81 266.924 381 270.797 384.833L270.843 384.879C296.805 410.379 359.794 472.348 380.786 493.035L380.827 493.075C388.59 500.675 399.067 505 410.123 505C432.136 505 450 487.452 450 465.776V45.9405C450 32.9746 444.782 20.5252 435.446 11.3377C426.107 2.14129 413.433 -3 400.265 -3H111.735C98.5678 -3 85.8943 2.14039 76.5563 11.3367C76.5547 11.3382 76.5532 11.3398 76.5517 11.3413C76.5501 11.3428 76.5485 11.3444 76.5469 11.3459C67.2145 20.5328 62 32.9788 62 45.9405V466.044Z" fill="white"/>
</g>
<defs>
<clipPath id="clip0_475_24086">
<rect width="512" height="512" fill="white"/>
</clipPath>
</defs>
</svg>
